<svg width="20" height="21" viewBox="0 0 20 21" fill="none" xmlns="http://www.w3.org/2000/svg">
    <g id="shopping-cart">
        <path id="Vector"
            d="M2.5 3H4.16667L4.5 4.66667M4.5 4.66667H17.5L14.1667 11.3333H5.83333M4.5 4.66667L5.83333 11.3333M5.83333 11.3333L3.9225 13.2442C3.3975 13.7692 3.76917 14.6667 4.51167 14.6667H14.1667M14.1667 14.6667C13.7246 14.6667 13.3007 14.8423 12.9882 15.1548C12.6756 15.4674 12.5 15.8913 12.5 16.3333C12.5 16.7754 12.6756 17.1993 12.9882 17.5118C13.3007 17.8244 13.7246 18 14.1667 18C14.6087 18 15.0326 17.8244 15.3452 17.5118C15.6577 17.1993 15.8333 16.7754 15.8333 16.3333C15.8333 15.8913 15.6577 15.4674 15.3452 15.1548C15.0326 14.8423 14.6087 14.6667 14.1667 14.6667ZM7.5 16.3333C7.5 16.7754 7.3244 17.1993 7.01184 17.5118C6.69928 17.8244 6.27536 18 5.83333 18C5.39131 18 4.96738 17.8244 4.65482 17.5118C4.34226 17.1993 4.16667 16.7754 4.16667 16.3333C4.16667 15.8913 4.34226 15.4674 4.65482 15.1548C4.96738 14.8423 5.39131 14.6667 5.83333 14.6667C6.27536 14.6667 6.69928 14.8423 7.01184 15.1548C7.3244 15.4674 7.5 15.8913 7.5 16.3333Z"
            stroke="current" stroke-linecap="round" stroke-linejoin="round" />
    </g>
</svg>