<svg width="20" height="21" viewBox="0 0 20 21" fill="none" xmlns="http://www.w3.org/2000/svg">
<path d="M14.1666 17.1667H18.3333V15.5C18.3333 14.9804 18.1713 14.4738 17.8701 14.0505C17.5688 13.6272 17.1431 13.3083 16.6523 13.1381C16.1614 12.9679 15.6296 12.9549 15.131 13.1008C14.6324 13.2468 14.1916 13.5445 13.87 13.9525M14.1666 17.1667H5.83329M14.1666 17.1667V15.5C14.1666 14.9533 14.0616 14.4308 13.87 13.9525M13.87 13.9525C13.5605 13.1791 13.0264 12.5162 12.3366 12.0493C11.6468 11.5823 10.8329 11.3327 9.99996 11.3327C9.16697 11.3327 8.35309 11.5823 7.6633 12.0493C6.9735 12.5162 6.43942 13.1791 6.12996 13.9525M5.83329 17.1667H1.66663V15.5C1.66666 14.9804 1.82857 14.4738 2.12984 14.0505C2.43112 13.6272 2.85678 13.3083 3.34767 13.1381C3.83856 12.9679 4.37027 12.9549 4.86891 13.1008C5.36754 13.2468 5.80832 13.5445 6.12996 13.9525M5.83329 17.1667V15.5C5.83329 14.9533 5.93829 14.4308 6.12996 13.9525M12.5 6.33333C12.5 6.99637 12.2366 7.63226 11.7677 8.1011C11.2989 8.56994 10.663 8.83333 9.99996 8.83333C9.33692 8.83333 8.70103 8.56994 8.23219 8.1011C7.76335 7.63226 7.49996 6.99637 7.49996 6.33333C7.49996 5.67029 7.76335 5.03441 8.23219 4.56557C8.70103 4.09673 9.33692 3.83333 9.99996 3.83333C10.663 3.83333 11.2989 4.09673 11.7677 4.56557C12.2366 5.03441 12.5 5.67029 12.5 6.33333ZM17.5 8.83333C17.5 9.27536 17.3244 9.69928 17.0118 10.0118C16.6992 10.3244 16.2753 10.5 15.8333 10.5C15.3913 10.5 14.9673 10.3244 14.6548 10.0118C14.3422 9.69928 14.1666 9.27536 14.1666 8.83333C14.1666 8.39131 14.3422 7.96738 14.6548 7.65482C14.9673 7.34226 15.3913 7.16667 15.8333 7.16667C16.2753 7.16667 16.6992 7.34226 17.0118 7.65482C17.3244 7.96738 17.5 8.39131 17.5 8.83333ZM5.83329 8.83333C5.83329 9.27536 5.6577 9.69928 5.34514 10.0118C5.03258 10.3244 4.60865 10.5 4.16663 10.5C3.7246 10.5 3.30068 10.3244 2.98811 10.0118C2.67555 9.69928 2.49996 9.27536 2.49996 8.83333C2.49996 8.39131 2.67555 7.96738 2.98811 7.65482C3.30068 7.34226 3.7246 7.16667 4.16663 7.16667C4.60865 7.16667 5.03258 7.34226 5.34514 7.65482C5.6577 7.96738 5.83329 8.39131 5.83329 8.83333Z" stroke="#6B7280" stroke-linecap="round" stroke-linejoin="round"/>
</svg>
