<svg width="20" height="21" viewBox="0 0 20 21" fill="none" xmlns="http://www.w3.org/2000/svg">
    <g id="user-group">
        <path id="Vector"
            d="M14.1667 17.1667H18.3334V15.5C18.3334 14.9804 18.1715 14.4738 17.8702 14.0505C17.5689 13.6272 17.1433 13.3083 16.6524 13.1381C16.1615 12.9679 15.6298 12.9549 15.1311 13.1008C14.6325 13.2468 14.1917 13.5445 13.8701 13.9525M14.1667 17.1667H5.83341M14.1667 17.1667V15.5C14.1667 14.9533 14.0617 14.4308 13.8701 13.9525M13.8701 13.9525C13.5606 13.1791 13.0265 12.5162 12.3367 12.0493C11.6469 11.5823 10.8331 11.3327 10.0001 11.3327C9.1671 11.3327 8.35322 11.5823 7.66342 12.0493C6.97362 12.5162 6.43954 13.1791 6.13008 13.9525M5.83341 17.1667H1.66675V15.5C1.66679 14.9804 1.82869 14.4738 2.12997 14.0505C2.43124 13.6272 2.8569 13.3083 3.34779 13.1381C3.83868 12.9679 4.3704 12.9549 4.86903 13.1008C5.36766 13.2468 5.80844 13.5445 6.13008 13.9525M5.83341 17.1667V15.5C5.83341 14.9533 5.93841 14.4308 6.13008 13.9525M12.5001 6.33333C12.5001 6.99637 12.2367 7.63225 11.7678 8.1011C11.299 8.56994 10.6631 8.83333 10.0001 8.83333C9.33704 8.83333 8.70116 8.56994 8.23231 8.1011C7.76347 7.63225 7.50008 6.99637 7.50008 6.33333C7.50008 5.67029 7.76347 5.0344 8.23231 4.56556C8.70116 4.09672 9.33704 3.83333 10.0001 3.83333C10.6631 3.83333 11.299 4.09672 11.7678 4.56556C12.2367 5.0344 12.5001 5.67029 12.5001 6.33333ZM17.5001 8.83333C17.5001 9.27536 17.3245 9.69928 17.0119 10.0118C16.6994 10.3244 16.2754 10.5 15.8334 10.5C15.3914 10.5 14.9675 10.3244 14.6549 10.0118C14.3423 9.69928 14.1667 9.27536 14.1667 8.83333C14.1667 8.3913 14.3423 7.96738 14.6549 7.65482C14.9675 7.34226 15.3914 7.16666 15.8334 7.16666C16.2754 7.16666 16.6994 7.34226 17.0119 7.65482C17.3245 7.96738 17.5001 8.3913 17.5001 8.83333ZM5.83341 8.83333C5.83341 9.27536 5.65782 9.69928 5.34526 10.0118C5.0327 10.3244 4.60878 10.5 4.16675 10.5C3.72472 10.5 3.3008 10.3244 2.98824 10.0118C2.67568 9.69928 2.50008 9.27536 2.50008 8.83333C2.50008 8.3913 2.67568 7.96738 2.98824 7.65482C3.3008 7.34226 3.72472 7.16666 4.16675 7.16666C4.60878 7.16666 5.0327 7.34226 5.34526 7.65482C5.65782 7.96738 5.83341 8.3913 5.83341 8.83333Z"
            stroke="current" stroke-linecap="round" stroke-linejoin="round" />
    </g>
</svg>